<svg width="53" height="43" viewBox="0 0 53 43" fill="none" xmlns="http://www.w3.org/2000/svg">
<path d="M52.4258 8.44059C52.7591 9.10726 52.9258 9.88851 52.9258 10.7739C52.9258 11.5239 52.8268 12.2323 52.6341 12.8989C52.1862 14.4302 51.4154 15.6802 50.3216 16.6489C49.2227 17.6073 47.9727 18.3104 46.5716 18.7531C45.181 19.201 43.7643 19.4406 42.3216 19.4823C44.2904 20.4146 45.7227 21.6646 46.6133 23.2323C47.4987 24.7896 47.9466 26.5864 47.9466 28.6281C47.9466 29.9614 47.6549 31.3729 47.0716 32.8573C46.4987 34.3468 45.6185 35.7323 44.4258 37.0239C43.2435 38.3 41.7643 39.2948 39.9883 40.0031C39.3893 40.2635 38.5508 40.4823 37.4674 40.6489C36.3841 40.8156 35.2487 40.8989 34.0716 40.8989C33.8737 40.8989 33.6758 40.8833 33.4674 40.8573C33.2695 40.8416 33.082 40.8364 32.9049 40.8364C31.8893 40.7635 30.6445 40.55 29.1758 40.1906C27.7174 39.8416 26.4466 39.3364 25.3633 38.6698C24.181 37.9198 23.1029 37.0031 22.1341 35.9198C21.7279 36.6021 21.0716 37.4198 20.1549 38.3781C19.2383 39.3468 18.0404 40.2166 16.5716 40.9823C15.1133 41.7427 13.306 42.2166 11.1549 42.3989C10.957 42.4406 10.7591 42.4614 10.5508 42.4614C10.3529 42.4614 10.1602 42.4614 9.96745 42.4614C7.70182 42.4614 5.86849 42.0031 4.46745 41.0864C3.07682 40.1698 2.07161 39.0031 1.44661 37.5864C0.811199 36.1854 0.488281 34.7427 0.488281 33.2531C0.488281 33.076 0.503907 32.9198 0.529948 32.7948C0.545573 32.6593 0.550781 32.5135 0.550781 32.3573C0.707031 30.3156 1.27995 28.4354 2.27995 26.7114C3.27995 24.9771 4.57161 23.3677 6.15495 21.8781C7.73828 20.3937 9.47266 19.0187 11.3633 17.7531C13.2643 16.4927 15.2018 15.2948 17.1758 14.1698C17.6185 11.4614 18.3424 9.25309 19.3424 7.54476C20.3424 5.83643 21.3424 4.53434 22.3424 3.62809C23.3529 2.71143 24.1029 2.10205 24.5924 1.79476C25.2591 1.35205 25.9779 1.03434 26.7591 0.836426C27.5352 0.628092 28.2799 0.523926 28.9883 0.523926C29.431 0.523926 29.8477 0.555175 30.2383 0.607259C30.6393 0.664551 30.9674 0.784343 31.2174 0.961426C32.0768 1.40934 32.5612 2.11768 32.6758 3.08643C32.7435 3.22705 32.7799 3.35205 32.7799 3.46143C32.7799 4.91976 32.2591 6.26351 31.2174 7.48226C30.1758 8.70622 28.7799 9.87809 27.0299 11.0031C25.2904 12.1177 23.3633 13.2479 21.2383 14.3989C21.1966 15.0396 21.1445 15.7323 21.0924 16.4823C21.0352 17.2218 21.0091 17.9771 21.0091 18.7531C21.0091 19.2427 21.0143 19.7479 21.0299 20.2739C21.056 20.7896 21.0924 21.3052 21.1341 21.8156C21.7279 29.5968 24.2799 34.7479 28.7799 37.2739C29.957 37.9823 31.0508 38.4718 32.0508 38.7531C33.0612 39.0291 33.9779 39.1698 34.8008 39.1698C35.9102 39.1698 36.931 38.9614 37.8633 38.5448C39.3893 37.9458 40.6341 37.0864 41.5924 35.9614C42.5612 34.826 43.2852 33.5864 43.7591 32.2531C44.2435 30.9093 44.4883 29.6437 44.4883 28.4614C44.4883 28.3521 44.4935 28.2114 44.5091 28.0448C44.5352 27.8781 44.5508 27.7218 44.5508 27.5656C44.5508 27.3729 44.5352 27.1906 44.5091 27.0239C44.4935 26.8573 44.4883 26.6646 44.4883 26.4406C44.3477 24.8468 43.9674 23.5968 43.3424 22.6906C42.7279 21.7739 42.0352 21.1021 41.2591 20.6698C40.4779 20.2427 39.7591 19.9614 39.0924 19.8364C38.4258 19.7114 37.9779 19.6489 37.7591 19.6489C36.5612 19.6489 35.4518 19.8989 34.4258 20.3989C33.4102 20.8989 32.5924 21.5604 31.9674 22.3781C31.3529 23.201 31.0508 24.0864 31.0508 25.0448C31.0508 25.3937 31.1341 25.8521 31.3008 26.4198C31.4674 26.9927 31.7695 27.5031 32.2174 27.9614C32.6758 28.4093 33.3112 28.6281 34.1341 28.6281C34.4935 28.6281 34.8424 28.576 35.1758 28.4614C35.3268 28.3781 35.4362 28.3364 35.5091 28.3364C35.8112 28.3364 36.0195 28.4718 36.1341 28.7323C36.1758 28.8052 36.1966 28.8937 36.1966 29.0031C36.1966 29.3104 36.0612 29.5396 35.8008 29.6906C35.2695 29.9823 34.7174 30.1281 34.1341 30.1281C32.7852 30.0864 31.7487 29.7323 31.0299 29.0656C30.306 28.3989 29.806 27.6281 29.5299 26.7531C29.2487 25.8781 29.1133 25.1073 29.1133 24.4406V24.1073C29.181 22.7739 29.6237 21.5343 30.4466 20.3781C31.2643 19.2271 32.1549 18.4093 33.1133 17.9198C34.457 17.1698 35.7383 16.6854 36.9466 16.4614C38.1549 16.2427 39.306 16.1281 40.4049 16.1281C41.4987 16.1281 42.5716 16.1177 43.6133 16.0864C44.6549 16.0448 45.6758 15.8573 46.6758 15.5239C48.2018 14.9562 49.3685 14.1593 50.1758 13.1281C50.9935 12.0864 51.4049 11.1021 51.4049 10.1698C51.4049 9.79476 51.3477 9.47705 51.2383 9.21143L50.9674 8.77393C50.8529 8.58122 50.7018 8.41455 50.5091 8.27393C50.3268 8.12288 50.0924 8.02393 49.8008 7.98226C49.3841 7.91455 49.1758 7.63851 49.1758 7.14893C49.2591 6.77393 49.5195 6.58643 49.9674 6.58643C51.0091 6.70101 51.8268 7.31559 52.4258 8.44059ZM26.5924 3.02393C26.2174 3.28955 25.707 3.75309 25.0716 4.41976C24.4466 5.08643 23.8268 6.01872 23.2174 7.21143C22.6029 8.39372 22.0977 9.91455 21.6966 11.7739C23.2904 10.9302 24.806 10.0812 26.2383 9.23226C27.6654 8.37288 28.8477 7.49788 29.7799 6.60726C30.707 5.70622 31.2279 4.78955 31.3424 3.85726C31.3424 3.78955 31.3268 3.74788 31.3008 3.73226C31.2852 3.70622 31.2799 3.66976 31.2799 3.62809C31.2799 2.93538 31.0352 2.45622 30.5508 2.19059C30.1758 1.99788 29.8216 1.89893 29.4883 1.89893C29.082 1.89893 28.6393 2.00309 28.1549 2.21143C27.6654 2.41976 27.1445 2.69059 26.5924 3.02393ZM9.30078 39.7739C9.78516 39.925 10.2487 40.0343 10.6966 40.1073C11.1393 40.1906 11.5716 40.2323 11.9883 40.2323C13.4987 40.2323 14.8633 39.8781 16.0716 39.1698C17.2799 38.4614 18.3112 37.6593 19.1758 36.7739C20.0352 35.8729 20.6654 35.1646 21.0716 34.6489C18.4987 30.8156 17.1029 26.3937 16.8841 21.3781L16.7799 18.8156C16.7799 18.4718 16.7852 18.1437 16.8008 17.8364C16.8268 17.5187 16.8424 17.2114 16.8424 16.9198C13.6758 18.9198 10.9674 21.1698 8.71745 23.6698C6.46745 26.1593 5.15495 28.9198 4.77995 31.9614C4.7487 32.1593 4.73828 32.3521 4.73828 32.5448C4.73828 32.7271 4.73828 32.9302 4.73828 33.1489C4.73828 33.9302 4.85287 34.7479 5.09245 35.6073C5.34245 36.4562 5.80078 37.2427 6.46745 37.9823C7.13411 38.7323 8.07682 39.326 9.30078 39.7739Z" fill="#C43C37"/>
</svg>
