<svg width="247" height="139" viewBox="0 0 247 139" fill="none" xmlns="http://www.w3.org/2000/svg">
<path d="M230.292 0.4375C230.568 0.869792 230.708 1.1875 230.708 1.39583C230.708 1.76042 230.568 2.07813 230.292 2.35417C230.292 2.35417 230.25 2.375 230.167 2.41667C230.094 2.45833 230.026 2.55208 229.958 2.6875C229.526 3.1875 228.562 4.14063 227.062 5.54167C225.562 6.93229 223.438 8.5 220.688 10.25C217.938 12 214.438 13.7188 210.188 15.3958C205.938 17.0781 200.839 18.474 194.896 19.5833C188.964 20.6823 182.068 21.2292 174.208 21.2292C167.708 21.2292 161.469 20.7656 155.5 19.8333C149.542 18.9062 143.714 17.8125 138.021 16.5625C132.339 15.3125 126.672 14.1875 121.021 13.1875C115.38 12.1875 109.667 11.6198 103.875 11.4792H101.75C92.9583 11.4792 84.625 12.625 76.75 14.9167C68.8854 17.1979 61.6875 20.1615 55.1458 23.8125C48.6146 27.4531 42.9375 31.3646 38.1042 35.5417C33.2813 39.724 29.5104 43.7448 26.7917 47.6042C23.9427 51.6771 21.5313 55.4271 19.5625 58.8542C17.6042 62.2865 16.125 65.0208 15.125 67.0625C14.125 69.1042 13.625 70.125 13.625 70.125L10.8333 77.4167C10.6094 77.9896 10.4271 78.5208 10.2917 79.0208C10.151 79.5208 10.0052 80.0208 9.85417 80.5208C9.21354 82.7292 8.71354 84.8906 8.35417 87C8.00521 89.1146 7.83333 91.1354 7.83333 93.0625C7.83333 96.6354 8.46875 99.7812 9.75 102.5C10.1771 103.432 10.8385 104.328 11.7292 105.188C12.6302 106.036 13.7604 106.708 15.125 107.208C15.7604 107.365 16.4219 107.474 17.1042 107.542C17.7813 107.615 18.4427 107.646 19.0833 107.646C22.0104 107.646 24.9427 106.932 27.875 105.5C30.8021 104.073 33.6667 102.141 36.4583 99.7083C40.4583 96.1406 43.9375 91.9948 46.8958 87.2708C49.8646 82.5521 52.25 77.9063 54.0417 73.3333C55.0417 70.9063 55.7708 68.5521 56.2292 66.2708C56.6979 63.9792 57.0208 62.0833 57.1875 60.5833C57.3646 59.0833 57.4583 58.3333 57.4583 58.3333V57.7917C57.6094 56.8646 57.9167 56.099 58.375 55.5C58.8333 54.8906 59.526 54.5833 60.4583 54.5833C62.0417 54.724 62.8333 55.7604 62.8333 57.6875V58.3333C62.8333 58.5417 62.7552 58.8646 62.6042 59.2917C62.1042 61.5156 61.4063 63.7865 60.5208 66.1042C59.6302 68.4271 58.7552 70.5521 57.8958 72.4792C57.0313 74.4115 56.2969 75.9688 55.6875 77.1458C55.0885 78.3281 54.7917 78.9167 54.7917 78.9167C52.8594 82.9167 50.5104 86.9375 47.75 90.9792C45 95.0104 41.8385 98.599 38.2708 101.75C34.9792 104.682 31.5469 106.974 27.9792 108.625C24.4063 110.266 20.7969 111.083 17.1458 111.083C16.7969 111.083 16.4219 111.083 16.0208 111.083C15.6302 111.083 15.2187 111.042 14.7917 110.958C8.92708 110.542 4.85938 108.188 2.58333 103.896C1 100.604 0.135416 96.6406 0 92C0 92 0 91.8958 0 91.6875C0 91.4688 0 91.1042 0 90.6042C0 89.3125 0.171875 87.224 0.520833 84.3333C0.880208 81.4323 1.65104 77.9115 2.83333 73.7708C4.01042 69.6198 5.875 64.9896 8.41667 59.875C10.9583 54.7656 14.4063 49.3542 18.7708 43.6458C19.0469 43.2865 19.9479 42.25 21.4792 40.5417C23.0208 38.8229 25.1875 36.6979 27.9792 34.1667C30.7708 31.625 34.1458 28.9583 38.1042 26.1667C42.0729 23.375 46.6302 20.7188 51.7708 18.1875C56.9219 15.6458 62.6458 13.5 68.9375 11.75C75.2292 10 82.0521 8.91146 89.4167 8.47917C91.9167 8.1875 94.3229 7.99479 96.6458 7.89583C98.9635 7.78646 101.271 7.72917 103.562 7.72917C109.062 7.72917 114.438 8.01563 119.688 8.58333C124.948 9.15625 130.229 9.83333 135.521 10.625C141.521 11.474 147.677 12.3125 154 13.1458C160.333 13.9688 167.068 14.4115 174.208 14.4792H175.062C184.354 14.4792 192.339 13.7865 199.021 12.3958C205.714 10.9948 211.219 9.36979 215.542 7.52083C219.859 5.66146 223.073 4.01563 225.188 2.58333C227.297 1.15625 228.354 0.406249 228.354 0.333333C228.563 0.114583 228.844 0 229.208 0C229.708 0 230.068 0.145833 230.292 0.4375ZM129.396 22.8333H130.583C131.219 23.125 131.542 23.7031 131.542 24.5625C131.469 24.8438 131.234 25.0729 130.833 25.25C130.443 25.4323 130.073 25.5208 129.729 25.5208C129.297 25.5208 128.167 25.7917 126.333 26.3333C124.51 26.8646 122.172 28.5573 119.312 31.4167C115.74 34.9167 112.719 38.974 110.25 43.5833C107.792 48.1979 105.24 52.8281 102.604 57.4792C101.448 59.3281 100.318 61.2396 99.2083 63.2083C98.1094 65.1667 96.9479 67.224 95.7292 69.375L93.375 73.4375C95.6667 73.8021 97.7188 74.1042 99.5417 74.3542C101.359 74.6042 103.021 74.7292 104.521 74.7292C107.313 74.7292 109.688 74.3073 111.646 73.4583C113.615 72.599 115.604 71.2396 117.604 69.375C117.823 69.1562 118.109 69.0417 118.458 69.0417C118.885 69.0417 119.25 69.1875 119.542 69.4792C119.75 69.6875 119.854 69.974 119.854 70.3333C119.854 70.7656 119.714 71.125 119.438 71.4167C116.781 73.9167 114.005 75.8281 111.104 77.1458C108.214 78.4688 104.552 79.125 100.125 79.125C98.776 79.125 97.3125 79.0573 95.7292 78.9167C94.1563 78.7656 92.4427 78.5521 90.5833 78.2708C85.151 87.5625 80.3125 95.5156 76.0625 102.125C71.8125 108.74 68.0052 114.234 64.6458 118.625C61.2813 123.026 58.2083 126.547 55.4167 129.188C52.6354 131.839 49.9583 133.823 47.375 135.146C44.8021 136.464 42.1979 137.406 39.5625 137.979C37.4063 138.406 35.4063 138.625 33.5625 138.625C29.8385 138.625 26.9583 138.104 24.9167 137.062C22.8854 136.031 21.4063 134.818 20.4792 133.417C19.5469 132.026 18.9687 130.719 18.75 129.5C18.5417 128.292 18.4375 127.505 18.4375 127.146C18.4375 126.797 18.651 126.479 19.0833 126.188C19.5104 125.906 19.7604 125.771 19.8333 125.771C20.6927 125.771 21.125 126.229 21.125 127.146C21.125 127.229 21.2083 127.714 21.375 128.604C21.5521 129.49 22 130.49 22.7083 131.604C23.4271 132.714 24.6146 133.656 26.2708 134.438C26.4792 134.521 27.0833 134.734 28.0833 135.083C29.0833 135.443 30.3333 135.625 31.8333 135.625C32.4167 135.625 33.0417 135.589 33.7083 135.521C34.3854 135.448 35.0885 135.302 35.8125 135.083C37.8125 134.51 39.9479 133.443 42.2292 131.875C44.5208 130.302 47.1302 127.875 50.0625 124.583C52.9896 121.292 56.3646 116.896 60.1875 111.396C64.0208 105.896 68.4688 98.9323 73.5417 90.5C73.5417 90.5729 73.8802 89.9583 74.5625 88.6667C75.2396 87.375 76.0625 85.875 77.0208 84.1667C77.9896 82.4479 78.8333 80.875 79.5417 79.4583C80.2604 78.0313 80.625 77.2031 80.625 76.9792C80.625 76.9792 80.2083 76.9323 79.375 76.8333C78.5521 76.724 77.7917 76.6667 77.0833 76.6667C73.5104 76.6667 70.5833 77.0417 68.2917 77.7917C66 78.5417 64.3854 78.9167 63.4583 78.9167C63.3854 78.9167 63.3177 78.9531 63.25 79.0208C63.1771 79.0938 63.1458 79.125 63.1458 79.125C62.8542 79.2656 62.6354 79.3333 62.5 79.3333C61.9271 79.3333 61.5417 79.1198 61.3333 78.6875C61.1771 78.4115 61.1042 78.1615 61.1042 77.9375C61.1042 77.4375 61.3177 77.0521 61.75 76.7708C61.8854 76.7031 62.776 76.2604 64.4167 75.4375C66.0677 74.6042 68.3385 73.8021 71.2292 73.0208C74.1302 72.2292 77.4427 71.8333 81.1667 71.8333C81.7344 71.8333 82.2813 71.8333 82.8125 71.8333C83.3542 71.8333 83.875 71.8698 84.375 71.9375L90.9167 60.6875C90.9167 60.5521 90.9479 60.4375 91.0208 60.3542C91.3802 59.7188 92.1094 58.474 93.2083 56.625C94.3177 54.7656 95.6979 52.5781 97.3542 50.0625C99.1302 47.3542 101.052 44.5573 103.125 41.6667C105.208 38.7656 107.464 36.0104 109.896 33.3958C112.323 30.7865 114.964 28.5573 117.812 26.7083C120.672 24.849 123.818 23.599 127.25 22.9583C127.609 22.875 127.984 22.8333 128.375 22.8333C128.776 22.8333 129.115 22.8333 129.396 22.8333Z" fill="#C43C37"/>
<path d="M163.498 85.7708C163.925 85.9947 164.144 86.3906 164.144 86.9583C164.144 87.2395 164.102 87.4531 164.019 87.6041C161.811 91.5364 159.436 95.3958 156.894 99.1875C154.363 102.969 151.592 106.073 148.582 108.5C145.582 110.932 142.295 112.146 138.727 112.146C135.227 112.146 132.436 111.271 130.352 109.521C128.279 107.771 127.248 105.25 127.248 101.958C127.248 101.682 127.248 101.385 127.248 101.062C127.248 100.729 127.29 100.427 127.373 100.146C124.649 103.854 121.858 106.766 118.998 108.875C116.134 110.99 113.352 112.078 110.644 112.146H110.207C107.634 112.146 105.582 111.557 104.04 110.375C102.509 109.198 101.42 107.719 100.769 105.937C100.128 104.146 99.8107 102.286 99.8107 100.354C99.8107 99.927 99.8107 99.5156 99.8107 99.125C99.8107 98.7239 99.8419 98.3489 99.9148 98C100.342 94.9166 101.196 91.625 102.477 88.125C103.769 84.625 105.457 81.1979 107.54 77.8333C110.748 72.625 113.852 68.5416 116.852 65.5833C119.852 62.6145 122.691 60.5208 125.373 59.3125C128.05 58.0937 130.503 57.4791 132.727 57.4791C133.654 57.4791 134.509 57.5729 135.29 57.75C136.082 57.9166 136.832 58.1458 137.54 58.4375C139.04 59.0104 140.128 59.9531 140.811 61.2708C141.488 62.5937 141.832 64.1823 141.832 66.0416C141.832 66.6979 141.795 67.3645 141.727 68.0416C141.654 68.7083 141.55 69.4375 141.415 70.2291L148.061 58.3333H156.957L141.623 85.6666C139.332 89.7395 137.665 93.0625 136.623 95.6458C135.592 98.2187 134.899 100.432 134.54 102.292C134.54 102.432 134.519 102.594 134.477 102.771C134.446 102.953 134.436 103.146 134.436 103.354C134.436 104.354 134.717 105.432 135.29 106.583C135.858 107.724 136.936 108.469 138.519 108.812C138.727 108.896 138.936 108.937 139.144 108.937C139.363 108.937 139.582 108.937 139.79 108.937C141.009 108.937 142.384 108.583 143.915 107.875C145.457 107.156 147.123 105.932 148.915 104.208C151.123 102.073 153.279 99.4323 155.394 96.2916C157.503 93.1406 159.561 89.8125 161.561 86.3125C161.852 85.8125 162.248 85.5625 162.748 85.5625C162.957 85.5625 163.207 85.6354 163.498 85.7708ZM117.936 106.042C122.071 102.958 126.175 97.8489 130.248 90.7083C130.899 89.4895 131.727 87.8958 132.727 85.9375C133.727 83.9687 134.691 81.8229 135.623 79.5C136.55 77.1823 137.337 74.875 137.977 72.5833C138.613 70.2916 138.936 68.2604 138.936 66.4791C138.936 65.2604 138.753 64.2031 138.394 63.3125C138.045 62.427 137.477 61.7291 136.686 61.2291C136.113 60.8698 135.477 60.6875 134.769 60.6875C133.045 60.6875 131.108 61.5625 128.957 63.3125C126.816 65.0625 124.623 67.3541 122.373 70.1875C120.123 73.0104 118.029 76.0208 116.102 79.2291C114.17 82.5208 112.509 85.7916 111.123 89.0416C109.733 92.2916 108.821 95.3854 108.394 98.3125C108.17 99.4687 108.061 100.578 108.061 101.646C108.061 103.854 108.488 105.5 109.352 106.583C110.212 107.656 111.321 108.187 112.686 108.187C114.186 108.187 115.936 107.474 117.936 106.042Z" fill="#C43C37"/>
<path d="M217.092 85.6666C217.519 85.875 217.738 86.2708 217.738 86.8541C217.738 87.1354 217.702 87.3437 217.634 87.4791C213.061 95.5625 208.384 101.698 203.592 105.875C198.8 110.057 193.722 112.146 188.363 112.146C185.931 112.146 183.946 111.792 182.405 111.083C180.873 110.365 179.827 109.432 179.259 108.292C178.603 107.073 178.28 105.708 178.28 104.208C178.28 101.5 179.3 98.2031 181.342 94.3125C183.384 90.4114 186.368 85.8854 190.3 80.7291L191.467 79.2291C192.686 77.6614 194.05 75.8645 195.55 73.8333C197.05 71.7916 198.332 69.7916 199.405 67.8333C200.472 65.8645 201.009 64.1979 201.009 62.8333C201.009 61.4739 200.332 60.7916 198.988 60.7916C198.832 60.7916 198.665 60.8125 198.488 60.8541C198.321 60.8854 198.16 60.8958 198.009 60.8958C196.644 61.1198 195.248 61.5937 193.821 62.3125C192.405 63.0208 190.946 63.9114 189.446 64.9791C185.363 67.9791 181.675 71.3541 178.384 75.1041C175.103 78.8541 172.342 82.4479 170.092 85.875C167.842 89.3073 166.139 92.0208 164.988 94.0208C164.988 94.0208 164.915 94.1458 164.78 94.3958C164.639 94.6458 164.28 95.2916 163.696 96.3333C163.123 97.375 162.181 99.0573 160.863 101.375C159.54 103.698 157.665 107 155.238 111.292H146.446L176.03 58.3333H184.925L176.571 73.3333C178.931 70.625 181.431 68.0573 184.071 65.625C186.722 63.1979 189.425 61.2291 192.175 59.7291C194.925 58.2291 197.618 57.4791 200.259 57.4791C201.41 57.4791 202.519 57.625 203.592 57.9166C204.66 58.1979 205.478 58.8333 206.05 59.8333C206.41 60.3333 206.681 60.8906 206.863 61.5C207.04 62.0989 207.134 62.8281 207.134 63.6875C207.134 65.552 206.519 68 205.3 71.0416C204.092 74.0729 201.91 77.802 198.759 82.2291C196.686 85.2291 194.509 88.3645 192.217 91.625C189.936 94.875 188.186 97.7864 186.967 100.354C186.103 102.146 185.675 103.646 185.675 104.854C185.675 106.219 186.103 107.203 186.967 107.812C187.827 108.411 188.936 108.708 190.3 108.708C191.728 108.708 193.332 108.375 195.113 107.708C196.905 107.031 198.696 106.01 200.488 104.646C202.988 102.719 205.467 100.229 207.925 97.1875C210.394 94.1458 212.811 90.4895 215.175 86.2083C215.452 85.7083 215.842 85.4583 216.342 85.4583C216.561 85.4583 216.811 85.5312 217.092 85.6666Z" fill="#C43C37"/>
<path d="M245.502 85.6666C245.93 85.9583 246.148 86.3906 246.148 86.9583C246.148 87.2395 246.112 87.4531 246.044 87.6041C244.403 90.5364 242.653 93.4479 240.794 96.3333C238.93 99.2239 236.966 101.87 234.898 104.271C232.825 106.661 230.648 108.573 228.357 110C226.065 111.432 223.633 112.146 221.065 112.146C217.565 112.146 214.758 111.26 212.648 109.479C210.534 107.687 209.482 105.078 209.482 101.646C209.482 99.6458 209.867 97.375 210.648 94.8333C211.44 92.2916 212.695 89.4895 214.419 86.4166L230.065 58.3333H238.857L223.627 85.6666C221.627 89.3906 220.034 92.6145 218.857 95.3333C217.69 98.0416 216.924 100.323 216.565 102.167C216.565 102.323 216.544 102.49 216.502 102.667C216.471 102.833 216.461 103.031 216.461 103.25C216.461 104.25 216.742 105.344 217.315 106.521C217.883 107.703 218.95 108.432 220.523 108.708C220.742 108.781 221.107 108.812 221.607 108.812C222.815 108.812 224.2 108.479 225.773 107.812C227.357 107.135 229.07 105.896 230.919 104.104C233.138 101.969 235.299 99.3281 237.398 96.1875C239.508 93.0364 241.57 89.7083 243.586 86.2083C243.93 85.7812 244.357 85.5625 244.857 85.5625C245.148 85.5625 245.362 85.5989 245.502 85.6666ZM245.836 47.3958C245.112 48.8281 244.195 50.0104 243.086 50.9375C241.987 51.8698 240.758 52.3333 239.398 52.3333C238.825 52.3333 238.258 52.2239 237.69 52C235.966 51.2916 235.107 49.9739 235.107 48.0416C235.107 46.9739 235.461 45.7239 236.169 44.2916C237.028 42.7083 238.086 41.4948 239.336 40.6458C240.586 39.7864 241.784 39.3541 242.94 39.3541C243.508 39.3541 244.008 39.4583 244.44 39.6666C246.075 40.3229 246.898 41.6458 246.898 43.6458C246.898 44.927 246.544 46.177 245.836 47.3958Z" fill="#C43C37"/>
</svg>
