<svg width="287" height="131" viewBox="0 0 287 131" fill="none" xmlns="http://www.w3.org/2000/svg">
<path d="M166.195 3.79818C166.695 4.79818 166.945 5.91276 166.945 7.13151C166.945 8.71484 166.445 10.2253 165.445 11.6523C164.512 13.0273 163.143 14.0794 161.34 14.7982C159.549 15.5065 157.507 15.8607 155.215 15.8607C153.632 15.8607 151.955 15.7357 150.195 15.4857C148.445 15.2357 146.236 14.7513 143.57 14.0273C139.486 19.0586 135.757 24.444 132.382 30.194C129.007 35.9336 125.632 41.9961 122.257 48.3815C121.101 50.2565 119.95 52.1836 118.799 54.1523C117.643 56.1263 116.465 58.1888 115.257 60.3398C112.59 65.2982 109.783 70.4023 106.84 75.6523C103.893 80.8919 100.95 85.9805 98.0072 90.9232C94.9915 96.1732 91.5801 101.204 87.778 106.007C83.9707 110.824 79.679 115.116 74.903 118.882C70.1374 122.642 64.8092 125.6 58.9238 127.757C53.0332 129.923 46.4655 131.007 39.2155 131.007C37.5592 131.007 35.653 130.871 33.4863 130.611C31.3301 130.361 29.2155 129.996 27.1322 129.527C25.0592 129.069 23.2363 128.486 21.653 127.777C15.1113 124.829 10.0072 120.158 6.3405 113.757C2.68425 107.366 0.861328 100.121 0.861328 92.0065C0.861328 91.4388 0.861328 90.8711 0.861328 90.2982C0.861328 89.7148 0.892578 89.1419 0.965495 88.569C1.39258 82.5273 2.61654 76.6523 4.63216 70.944C6.64258 65.2357 9.35091 59.8919 12.7572 54.9023C16.1738 49.918 20.1426 45.5586 24.6738 41.819C28.6165 38.5169 33.153 35.8398 38.278 33.7982C43.4134 31.7461 48.679 30.7148 54.0697 30.7148C55.7207 30.7148 57.3405 30.8294 58.9238 31.0482C66.8822 32.0482 72.3717 35.8555 75.403 42.4648C76.7624 45.6211 77.4447 49.1419 77.4447 53.0273C77.4447 57.6107 76.6165 62.2461 74.9655 66.9232C73.3093 71.5898 71.2259 75.6836 68.7155 79.194C67.7832 80.5586 66.8092 81.8346 65.7988 83.0273C64.7988 84.2096 63.7988 85.2982 62.7988 86.2982C62.7988 86.2982 62.278 86.8398 61.2363 87.9232C60.1947 88.9961 58.8092 90.319 57.0905 91.9023C55.3665 93.4857 53.4967 95.0169 51.4863 96.4857C49.4707 97.9596 47.5332 99.1263 45.6738 99.9857C45.0176 100.194 44.4082 100.298 43.8405 100.298C42.5488 100.298 41.6842 99.8346 41.2572 98.9023C41.1009 98.4753 41.028 98.1107 41.028 97.819C41.028 97.1836 41.2988 96.5586 41.8405 95.944C42.3822 95.3346 43.2988 94.8815 44.5905 94.5898C45.6738 94.2305 47.304 93.5482 49.4863 92.5482C51.679 91.5482 54.1217 90.0273 56.8197 87.9857C59.5124 85.9336 62.1842 83.2148 64.8405 79.8398L66.5697 77.569C68.9967 74.418 70.9499 70.6315 72.4238 66.2148C73.8926 61.7982 74.6322 57.4753 74.6322 53.2357C74.6322 51.5169 74.4863 49.8294 74.1947 48.1732C73.9134 46.5221 73.4551 44.9805 72.8197 43.5482C70.304 37.8711 65.5592 34.6003 58.5905 33.7357C58.1582 33.668 57.7051 33.6211 57.2363 33.5898C56.778 33.5482 56.3301 33.5273 55.903 33.5273C51.7363 33.5273 47.6738 34.5586 43.7155 36.6107C39.7676 38.6523 36.0749 41.069 32.6322 43.8607C26.1009 49.319 20.8457 56.0013 16.8613 63.9023C12.8717 71.793 10.5905 80.0846 10.0072 88.7773C9.93425 89.569 9.903 90.3815 9.903 91.2148C9.903 92.0378 9.903 92.8398 9.903 93.6315C9.903 100.814 11.1374 107.199 13.6113 112.798C16.0957 118.392 20.2155 122.559 25.9655 125.298C27.8926 126.225 29.903 126.871 31.9863 127.236C34.0697 127.595 36.153 127.777 38.2363 127.777H39.9655C44.5592 127.553 48.9342 126.704 53.0905 125.236C57.2572 123.762 61.4238 121.35 65.5905 118.007C69.7572 114.673 74.153 110.038 78.778 104.111C83.4134 98.194 88.5332 90.6836 94.1322 81.569C94.9238 80.2773 95.9655 78.4648 97.2572 76.1315C98.5488 73.7982 99.9082 71.3086 101.34 68.6523C102.783 65.9857 104.163 63.418 105.486 60.944C106.82 58.4596 107.95 56.3555 108.882 54.6315C109.825 52.9128 110.367 51.9023 110.507 51.6107L110.84 51.0898C111.268 50.2305 112.075 48.7357 113.257 46.6107C114.434 44.4857 115.887 41.9753 117.611 39.069C119.33 36.168 121.247 33.1211 123.361 29.9232C125.486 26.7305 127.736 23.6055 130.111 20.5482C132.486 17.4961 134.851 14.7878 137.215 12.4232C134.34 11.7044 131.429 10.8763 128.486 9.94401C123.82 8.56901 119.58 7.29297 115.778 6.11068C111.971 4.93359 108.278 4.33984 104.695 4.33984H103.174C99.4499 4.33984 96.028 5.04297 92.903 6.44401C89.778 7.83464 87.3509 9.82943 85.6322 12.4232C84.0488 14.7148 83.2572 17.2982 83.2572 20.1732C83.2572 22.2565 83.7572 24.3763 84.7572 26.5273C85.4759 27.9596 86.3613 29.1263 87.403 30.0273C88.4447 30.918 89.5072 31.6211 90.5905 32.1315C92.4499 32.7721 94.0957 33.0898 95.528 33.0898C97.403 33.0898 98.9499 32.7878 100.174 32.1732C101.393 31.5638 102.325 30.9544 102.965 30.3398C103.617 29.7305 103.945 29.4232 103.945 29.4232C104.653 28.7148 105.476 28.3607 106.424 28.3607C107.351 28.3607 108.033 28.6471 108.465 29.2148C108.601 29.4388 108.705 29.6628 108.778 29.8815C108.861 30.0898 108.903 30.3346 108.903 30.6107C108.903 31.1107 108.721 31.6523 108.361 32.2357C107.997 32.8086 107.424 33.2721 106.632 33.6315C104.617 34.7878 102.601 35.4857 100.59 35.7357C98.5905 35.9857 97.0488 36.1107 95.9655 36.1107H94.778C94.5697 36.1107 94.0697 36.1107 93.278 36.1107C92.4863 36.1107 91.9759 36.0794 91.7572 36.0065C88.8249 35.7148 86.278 34.8555 84.1113 33.4232C81.9551 31.9805 80.2676 30.0794 79.0488 27.7148C77.9082 25.2044 77.3405 22.7253 77.3405 20.2773C77.3405 16.9023 78.304 13.7773 80.2363 10.9023C82.2467 7.89193 85.2467 5.57943 89.2363 3.96484C93.2207 2.33984 97.403 1.52734 101.778 1.52734H103.299C107.033 1.7513 111.09 2.41797 115.465 3.52734C119.84 4.64193 124.434 5.91797 129.257 7.36068L139.486 10.2565C139.486 10.2565 140.018 9.73568 141.09 8.69401C142.174 7.65234 143.632 6.45443 145.465 5.08984C147.299 3.73047 149.382 2.54818 151.715 1.54818C154.049 0.53776 156.507 0.0273438 159.09 0.0273438C160.59 0.0273438 161.986 0.355469 163.278 1.00651C164.57 1.64714 165.538 2.57943 166.195 3.79818ZM161.674 11.6523C163.393 10.6523 164.257 9.22526 164.257 7.36068C164.257 5.98568 163.679 4.87109 162.528 4.00651C161.372 3.21484 160.153 2.81901 158.861 2.81901C156.637 2.90234 154.611 3.52214 152.778 4.67318C150.945 5.8138 149.382 7.04818 148.09 8.38151C146.799 9.70443 145.83 10.7565 145.195 11.5482C146.413 11.9128 147.903 12.2721 149.653 12.6315C151.413 12.9961 153.09 13.1732 154.674 13.1732C156.033 13.1732 157.304 13.0482 158.486 12.7982C159.679 12.5482 160.742 12.168 161.674 11.6523Z" fill="#C43C37"/>
<path d="M182.563 61.2149C182.99 61.4232 183.209 61.8138 183.209 62.3816C183.209 62.6732 183.172 62.892 183.105 63.0274C180.881 67.267 177.844 70.4128 174 72.4649C170.167 74.5066 166.344 75.642 162.542 75.8607C161.526 78.4441 160.125 81.2774 158.334 84.3607C155.677 88.892 152.881 92.4336 149.938 94.9857C146.99 97.5274 144.188 99.392 141.521 100.569C138.865 101.751 136.568 102.507 134.625 102.84C132.693 103.163 131.334 103.319 130.542 103.319C130.334 103.319 130.172 103.319 130.063 103.319C129.948 103.319 129.896 103.319 129.896 103.319C126.813 103.319 124.386 102.642 122.625 101.277C120.875 99.918 119.615 98.2149 118.855 96.1732C118.105 94.1211 117.73 92.0482 117.73 89.9649C117.73 89.6055 117.73 89.2461 117.73 88.8816C117.73 88.5222 117.761 88.2045 117.834 87.9232C117.985 85.9128 118.323 83.9545 118.855 82.0482C119.396 80.1472 120.026 78.267 120.75 76.4024L122.146 73.1524C124.006 69.0691 125.98 65.1472 128.063 61.3816C130.146 57.6055 132.105 54.1888 133.938 51.1316C135.771 48.0795 137.297 45.6211 138.521 43.7566C140.172 41.2461 142 38.642 144 35.944C146.011 33.2513 148.151 30.7774 150.417 28.5274C152.677 26.267 154.99 24.4336 157.355 23.0274C159.73 21.6263 162.105 20.9232 164.48 20.9232C165.047 20.9232 165.563 20.9597 166.021 21.0274C166.49 21.1003 166.985 21.2097 167.5 21.3607C170 22.2253 171.542 24.017 172.125 26.7357C172.193 27.0274 172.23 27.4961 172.23 28.1316C172.23 30.4388 171.365 33.1732 169.646 36.3399C167.922 39.4961 165.089 42.543 161.146 45.4857C159.407 46.7097 157.719 47.7513 156.084 48.6107C158.802 49.1107 161.063 50.5482 162.855 52.9232C164.646 55.2878 165.542 58.4805 165.542 62.5066C165.542 65.6628 164.896 69.1732 163.605 73.0482C166.839 72.6888 170.021 71.6003 173.146 69.7774C176.271 67.9441 178.797 65.267 180.73 61.7357C181.021 61.2357 181.417 60.9857 181.917 60.9857C182.068 60.9857 182.282 61.0638 182.563 61.2149ZM166.625 24.0482C165.985 23.8295 165.339 23.7149 164.688 23.7149C162.032 23.7149 159.427 25.4024 156.875 28.7774C154.334 32.1524 151.339 36.9336 147.896 43.1107L144 50.0066C146.943 49.2149 149.73 48.2982 152.355 47.2566C154.98 46.2149 157.365 44.9024 159.521 43.3191C163.032 40.668 165.584 37.9597 167.167 35.194C168.75 32.4336 169.542 30.0795 169.542 28.1316C169.542 27.9961 169.521 27.8347 169.48 27.6524C169.448 27.4753 169.438 27.3138 169.438 27.1732C169.073 25.5222 168.136 24.4805 166.625 24.0482ZM150.688 82.7566C152.115 80.3816 153.407 77.8295 154.563 75.0899C150.823 74.0222 148.063 72.0691 146.271 69.2357C144.48 66.392 143.584 63.5378 143.584 60.6732V59.9024C143.651 58.1836 143.901 56.6941 144.334 55.4441C144.761 54.1836 145.261 53.1628 145.834 52.3816L142.063 53.4441L138.084 60.5691C138.084 60.5691 137.709 61.2722 136.959 62.6732C136.209 64.0638 135.235 65.8555 134.042 68.0482C132.86 70.2461 131.657 72.5638 130.438 75.0066C129.214 77.4388 128.136 79.7722 127.209 82.0066C126.276 84.2305 125.667 86.0222 125.375 87.3816C125.302 87.7461 125.214 88.3555 125.105 89.2149C124.99 90.0795 124.938 91.0066 124.938 92.0066C124.938 93.2982 125.094 94.5899 125.417 95.8816C125.75 97.1732 126.36 98.2722 127.25 99.1732C128.151 100.079 129.427 100.527 131.084 100.527C133.959 100.527 137.115 98.8763 140.563 95.5691C144.006 92.267 147.381 87.9961 150.688 82.7566ZM155.646 72.5066C156.573 70.7149 157.396 68.5638 158.105 66.0482C158.823 63.5378 159.188 61.168 159.188 58.9441C159.188 56.8607 158.735 55.0691 157.834 53.5691C156.943 52.0586 155.355 51.2982 153.063 51.2982C152.839 51.2982 152.615 51.3191 152.396 51.3607C152.188 51.392 151.98 51.4024 151.771 51.4024C149.823 51.9024 148.459 53.017 147.667 54.7357C146.875 56.4597 146.407 58.2566 146.271 60.1316V60.9857C146.271 63.3607 147.063 65.6836 148.646 67.9441C150.23 70.2097 152.563 71.7305 155.646 72.5066Z" fill="#C43C37"/>
<path d="M228.993 76.7149C229.42 76.9389 229.639 77.3347 229.639 77.9024C229.639 78.1941 229.602 78.4128 229.535 78.5483C224.936 86.6628 220.227 92.8191 215.41 97.0274C210.602 101.225 205.503 103.319 200.118 103.319C197.686 103.319 195.691 102.965 194.139 102.257C192.597 101.538 191.54 100.6 190.972 99.4441C190.316 98.2253 189.993 96.8556 189.993 95.3399C189.993 92.6212 191.014 89.2983 193.055 85.3816C195.107 81.4649 198.118 76.9233 202.076 71.7566L203.243 70.2566C204.462 68.6733 205.826 66.8608 207.326 64.8191C208.837 62.767 210.139 60.7514 211.222 58.7774C212.305 56.8087 212.847 55.142 212.847 53.7774C212.847 52.418 212.16 51.7358 210.785 51.7358C210.644 51.7358 210.482 51.7566 210.305 51.7983C210.123 51.8295 209.962 51.8399 209.826 51.8399C208.462 52.0483 207.061 52.517 205.618 53.2358C204.186 53.9597 202.712 54.8556 201.201 55.9233C197.102 58.9389 193.399 62.3347 190.097 66.1108C186.805 69.8764 184.024 73.4858 181.764 76.9441C179.498 80.392 177.79 83.1108 176.639 85.1108C176.639 85.1108 176.566 85.2358 176.43 85.4858C176.29 85.7358 175.93 86.3816 175.347 87.4233C174.774 88.4649 173.826 90.1524 172.493 92.4858C171.17 94.8191 169.29 98.1472 166.847 102.465H158.014L187.743 49.2566H196.68L188.285 64.3191C190.644 61.6003 193.149 59.017 195.805 56.5691C198.472 54.1264 201.186 52.1524 203.951 50.6524C206.712 49.142 209.42 48.3816 212.076 48.3816C213.227 48.3816 214.337 48.5274 215.41 48.8191C216.493 49.1108 217.326 49.7566 217.91 50.7566C218.253 51.2566 218.519 51.8139 218.701 52.4233C218.878 53.0378 218.972 53.7722 218.972 54.6316C218.972 56.5066 218.357 58.9753 217.139 62.0274C215.915 65.0691 213.727 68.8191 210.576 73.2774C208.493 76.2931 206.295 79.4337 203.993 82.6941C201.701 85.9597 199.941 88.8816 198.722 91.4649C197.857 93.2722 197.43 94.7774 197.43 95.9858C197.43 97.3608 197.857 98.3556 198.722 98.9649C199.581 99.5795 200.701 99.8816 202.076 99.8816C203.503 99.8816 205.118 99.5431 206.91 98.8608C208.701 98.1681 210.498 97.142 212.305 95.7774C214.816 93.8503 217.311 91.3555 219.785 88.2983C222.253 85.2462 224.68 81.5639 227.055 77.2566C227.347 76.7566 227.743 76.5066 228.243 76.5066C228.451 76.5066 228.701 76.5795 228.993 76.7149Z" fill="#C43C37"/>
<path d="M285.762 76.7149C286.262 77.0066 286.512 77.4024 286.512 77.9024C286.512 78.1108 286.439 78.3608 286.303 78.6524C284.064 82.6003 281.668 86.4753 279.116 90.2774C276.574 94.0847 273.829 97.2097 270.887 99.6524C267.939 102.1 264.71 103.319 261.199 103.319C257.684 103.319 254.85 102.423 252.699 100.632C250.543 98.8399 249.47 96.1837 249.47 92.6524C249.47 92.4441 249.481 92.2149 249.512 91.9649C249.553 91.7045 249.574 91.4649 249.574 91.2566C247.267 94.7045 244.746 97.5795 242.012 99.8816C239.288 102.173 236.283 103.319 232.991 103.319C229.46 103.319 226.637 102.423 224.512 100.632C222.397 98.8399 221.345 96.2149 221.345 92.7566C221.345 90.7566 221.741 88.4858 222.533 85.9441C223.324 83.392 224.579 80.5639 226.303 77.4649L242.033 49.2566H250.866L235.574 76.7149C233.559 80.4545 231.954 83.6889 230.762 86.4233C229.579 89.1472 228.809 91.4389 228.449 93.2983C228.449 93.4545 228.428 93.6212 228.387 93.7983C228.356 93.9649 228.345 94.1628 228.345 94.3816C228.345 95.3816 228.626 96.4962 229.199 97.7149C229.783 98.9389 230.866 99.6941 232.449 99.9858C232.658 100.059 233.012 100.09 233.512 100.09C234.731 100.09 236.137 99.7514 237.72 99.0691C239.303 98.392 241.022 97.1472 242.887 95.3399C244.329 93.9128 245.621 92.3555 246.762 90.6733C247.913 88.9805 249.064 87.1264 250.22 85.1108L253.658 79.0899C253.809 78.7983 253.97 78.5274 254.137 78.2774C254.314 78.0274 254.449 77.7566 254.533 77.4649L270.366 49.2566H279.178L263.887 76.7149C261.887 80.4545 260.288 83.6889 259.095 86.4233C257.913 89.1472 257.142 91.4389 256.783 93.2983C256.71 93.5222 256.678 93.9181 256.678 94.4858C256.678 95.4858 256.939 96.5847 257.47 97.7774C258.012 98.9597 259.074 99.6941 260.658 99.9858C260.876 100.059 261.272 100.09 261.845 100.09C263.064 100.09 264.46 99.7514 266.033 99.0691C267.616 98.392 269.309 97.1472 271.116 95.3399C273.408 93.1889 275.606 90.5378 277.72 87.3816C279.845 84.2149 281.913 80.8399 283.928 77.2566C284.288 76.8295 284.684 76.6108 285.116 76.6108C285.392 76.6108 285.606 76.6472 285.762 76.7149Z" fill="#C43C37"/>
</svg>
