<svg width="836" height="829" viewBox="0 0 836 829" fill="none" xmlns="http://www.w3.org/2000/svg">
<path d="M836 829L836 4.7944e-05L774.88 101.25L774.645 101.384L774.645 767.613L108.767 767.613L108.634 767.848L-5.75513e-05 829L836 829Z" fill="#990000"/>
<path d="M682.34 693.862L682.34 600.851L589.379 600.851L589.379 693.862L682.34 693.862Z" fill="#990000"/>
<path d="M607.971 619.453L607.971 583.179L571.716 583.179L571.716 619.453L607.971 619.453Z" fill="#990000"/>
<path d="M265.066 657.736L264.99 657.872L202.657 692.932L527.094 692.932L527.094 657.736L265.066 657.736Z" fill="#990000"/>
<path d="M647.271 275.695L647.136 275.771L647.136 537.603L682.34 537.603L682.341 217.646L647.271 275.695Z" fill="#990000"/>
<path d="M527.094 658.517L527.094 546.904L495.487 546.904L495.487 658.517L527.094 658.517Z" fill="#990000"/>
<path d="M536.39 537.603L647.945 537.603L647.945 505.98L536.39 505.98L536.39 537.603Z" fill="#990000"/>
</svg>
