<svg width="836" height="829" viewBox="0 0 836 829" fill="none" xmlns="http://www.w3.org/2000/svg">
<path d="M0 829L-3.62367e-05 4.7944e-05L61.1197 101.25L61.3548 101.384L61.3549 767.613L727.233 767.613L727.366 767.848L836 829L0 829Z" fill="#990000"/>
<path d="M153.66 693.862L153.66 600.851L246.621 600.851L246.621 693.862L153.66 693.862Z" fill="#990000"/>
<path d="M228.029 619.453L228.029 583.179L264.284 583.179L264.284 619.453L228.029 619.453Z" fill="#990000"/>
<path d="M570.934 657.736L571.01 657.872L633.343 692.932L308.906 692.932L308.906 657.736L570.934 657.736Z" fill="#990000"/>
<path d="M188.729 275.695L188.864 275.771L188.864 537.603L153.66 537.603L153.659 217.646L188.729 275.695Z" fill="#990000"/>
<path d="M308.906 658.517L308.906 546.904L340.513 546.904L340.513 658.517L308.906 658.517Z" fill="#990000"/>
<path d="M299.61 537.603L188.055 537.603L188.055 505.98L299.61 505.98L299.61 537.603Z" fill="#990000"/>
</svg>
