<svg xmlns="http://www.w3.org/2000/svg" width="95" height="162" fill="currentColor" viewBox="0 0 95 162">
  <path d="M35.792 42.417v49.458h22.812c5.25 0 9.11-1.156 11.584-3.48 2.468-2.317 4.093-6.916 4.874-13.79h3.459v42.499h-3.459c-.083-4.859-.724-8.427-1.916-10.708-1.198-2.276-2.854-3.99-4.98-5.146-2.124-1.167-5.312-1.75-9.562-1.75H35.792V139c0 6.333.385 10.542 1.166 12.625.61 1.542 1.922 2.854 3.938 3.937 2.693 1.459 5.51 2.188 8.458 2.188h4.625v3.479H0v-3.479h4.417c5.25 0 9.026-1.5 11.333-4.5 1.469-1.927 2.208-6.677 2.208-14.25V57.812c0-6.333-.39-10.541-1.166-12.625-.615-1.541-1.886-2.854-3.813-3.937-2.625-1.458-5.479-2.188-8.562-2.188H0v-3.479h93.458L94.75 63.25H91.5c-1.625-5.86-3.5-10.177-5.625-12.958-2.125-2.776-4.75-4.782-7.875-6.021-3.125-1.235-7.969-1.854-14.52-1.854H35.791Z"/>
  <path d="M59.605 106.5c.63 0 1.204.017 1.726.044v9.941c0 7.099.427 11.823 1.291 14.166.693 1.724 2.167 3.199 4.417 4.417 2.943 1.641 6.11 2.458 9.5 2.458h5.063v3.897H43.814a126.66 126.66 0 0 1-.022-2.423v-32.5h15.813Zm1.726-57.084v35.4a24.87 24.87 0 0 1-1.727.059H43.793V49.416h17.54ZM81.602 4.318h-5.063c-5.807 0-10.01 1.688-12.604 5.063-1.74 2.25-2.604 7.584-2.604 16v3.202H41.31v-3.202c0-7.11-.432-11.834-1.291-14.167-.698-1.734-2.126-3.208-4.292-4.416-3.032-1.651-6.24-2.48-9.625-2.48h-4.938V.422h60.438v3.896Z"/>
</svg>
