<svg width="300" height="977" viewBox="0 0 300 977" fill="none" xmlns="http://www.w3.org/2000/svg">
<path d="M298.825 572.904L298.679 573.051L211.109 660.619L298.679 748.188L299.532 749.043H220.591L277.48 814.916L277.755 815.232L277.491 815.558L147.123 976.244L146.726 976.734L146.339 976.235L22.0342 815.549L21.7842 815.226L22.0518 814.916L78.9424 749.043H0L0.853516 748.188L88.4219 660.619L0.707031 572.904V0H298.825V572.904ZM149.768 463.552C114.605 463.552 86.0996 492.057 86.0996 527.22C86.0998 562.383 114.605 590.888 149.768 590.888C184.93 590.888 213.435 562.382 213.436 527.22C213.436 492.057 184.93 463.552 149.768 463.552Z" fill="#990000"/>
</svg>
