<svg width="300" height="1113" viewBox="0 0 300 1113" fill="none" xmlns="http://www.w3.org/2000/svg">
<path d="M298.825 708.404L211.109 796.12L299.532 884.543H220.59L277.48 950.416L277.754 950.732L277.49 951.058L147.122 1111.74L146.725 1112.23L146.339 1111.74L22.0342 951.049L21.7842 950.726L22.0518 950.416L78.9424 884.543H0L88.4229 796.12L0.707031 708.404V0H298.825V708.404ZM149.767 599.052C114.604 599.052 86.0986 627.557 86.0986 662.72C86.0988 697.883 114.604 726.388 149.767 726.388C184.929 726.388 213.434 697.882 213.435 662.72C213.435 627.557 184.929 599.052 149.767 599.052Z" fill="#990000"/>
</svg>
