<svg width="300" height="683" viewBox="0 0 300 683" fill="none" xmlns="http://www.w3.org/2000/svg">
<path d="M298.825 278.904L298.679 279.051L211.109 366.619L298.679 454.188L299.532 455.043H220.591L277.48 520.916L277.755 521.232L277.491 521.558L147.123 682.244L146.726 682.734L146.339 682.235L22.0342 521.549L21.7842 521.226L22.0518 520.916L78.9424 455.043H0L0.853516 454.188L88.4219 366.619L0.707031 278.904V0H298.825V278.904ZM149.768 169.552C114.605 169.552 86.0996 198.057 86.0996 233.22C86.0998 268.383 114.605 296.888 149.768 296.888C184.93 296.888 213.435 268.382 213.436 233.22C213.436 198.057 184.93 169.552 149.768 169.552Z" fill="#990000"/>
</svg>
