<svg width="258" height="258" viewBox="0 0 258 258" fill="none" xmlns="http://www.w3.org/2000/svg">
<path d="M258 129C258 200.245 200.245 258 129 258C57.7553 258 0 200.245 0 129C0 57.7553 57.7553 0 129 0C200.245 0 258 57.7553 258 129Z" fill="#990000"/>
<path d="M117.792 90.9947V140.453H140.604C145.854 140.453 149.714 139.297 152.188 136.974C154.656 134.656 156.281 130.057 157.062 123.182H160.521V165.682H157.062C156.979 160.823 156.339 157.255 155.146 154.974C153.948 152.698 152.292 150.984 150.167 149.828C148.042 148.661 144.854 148.078 140.604 148.078H117.792V187.578C117.792 193.911 118.177 198.12 118.958 200.203C119.568 201.745 120.88 203.057 122.896 204.141C125.589 205.599 128.406 206.328 131.354 206.328H135.979V209.807H82V206.328H86.4167C91.6667 206.328 95.4427 204.828 97.75 201.828C99.2188 199.901 99.9583 195.151 99.9583 187.578V106.391C99.9583 100.057 99.5677 95.8489 98.7917 93.7655C98.1771 92.2239 96.9062 90.9114 94.9792 89.828C92.3542 88.3697 89.5 87.6405 86.4167 87.6405H82V84.1614H175.458L176.75 111.828H173.5C171.875 105.969 170 101.651 167.875 98.8697C165.75 96.0937 163.125 94.0885 160 92.8489C156.875 91.6145 152.031 90.9947 145.479 90.9947H117.792Z" fill="#D6A527"/>
<path d="M141.604 155.078C142.234 155.078 142.809 155.095 143.331 155.122V165.063C143.331 172.162 143.758 176.886 144.622 179.229C145.315 180.953 146.789 182.428 149.039 183.646C151.982 185.287 155.148 186.104 158.539 186.104H163.602V190.001H125.814C125.8 189.244 125.792 188.436 125.792 187.578V155.078H141.604Z" fill="#D6A527"/>
<path d="M143.331 97.9941V133.394C142.806 133.43 142.232 133.453 141.604 133.453H125.792V97.9941H143.331Z" fill="#D6A527"/>
<path d="M163.602 52.8965H158.539C152.732 52.8965 148.528 54.584 145.935 57.959C144.195 60.2091 143.331 65.5426 143.331 73.959V77.1611H123.31V73.959C123.31 66.8496 122.878 62.1253 122.019 59.792C121.321 58.0577 119.893 56.5843 117.727 55.376C114.695 53.7249 111.487 52.8965 108.102 52.8965H103.164V49H163.602V52.8965Z" fill="#D6A527"/>
</svg>
